<mxfile type="github" version="12.6.2" host="www.draw.io" modified="2020-01-30T17:44:10.836Z" agent="Mozilla/5.0 (Windows NT 10.0; Win64; x64) AppleWebKit/537.36 (KHTML, like Gecko) Chrome/64.0.3282.140 Safari/537.36 Edge/17.17134" etag="4KHEi4WOtwtNRstwPA33">
  <diagram id="ypM9kpdQdvI_O4axWnlW" name="Page-1">
    <mxGraphModel grid="1" dx="871" dy="553" gridSize="10" guides="1" tooltips="1" connect="1" arrows="1" fold="1" page="1" pageScale="1" pageWidth="827" pageHeight="1169" math="0" shadow="0">
      <root>
        <mxCell id="0"/>
        <mxCell id="1" parent="0"/>
        <mxCell id="LFUgPbKsddazM6XdQZ-X-4" value="" parent="1" style="group" vertex="1" connectable="0">
          <mxGeometry as="geometry" x="60" y="140" width="330" height="170"/>
        </mxCell>
        <mxCell id="QJhBpU2Ap4GqpJilakro-1" value="Base Calculo PDU.txt" parent="LFUgPbKsddazM6XdQZ-X-4" style="shape=note;whiteSpace=wrap;html=1;backgroundOutline=1;darkOpacity=0.05;" vertex="1">
          <mxGeometry as="geometry" y="10" width="90" height="120"/>
        </mxCell>
        <mxCell id="QJhBpU2Ap4GqpJilakro-7" value="" parent="LFUgPbKsddazM6XdQZ-X-4" style="shape=flexArrow;endArrow=classic;html=1;exitX=0;exitY=0;exitDx=90;exitDy=75;exitPerimeter=0;endWidth=14.784580498866212;endSize=8.347619047619048;width=15.238095238095237;entryX=0;entryY=0.5;entryDx=0;entryDy=0;" edge="1" source="QJhBpU2Ap4GqpJilakro-1" target="LFUgPbKsddazM6XdQZ-X-2">
          <mxGeometry as="geometry" width="50" height="50" relative="1">
            <mxPoint as="sourcePoint" x="100" y="100"/>
            <mxPoint as="targetPoint" x="170" y="85"/>
            <Array as="points"/>
          </mxGeometry>
        </mxCell>
        <mxCell id="LFUgPbKsddazM6XdQZ-X-2" value="&lt;span style=&quot;display: inline ; float: none ; background-color: transparent ; color: rgb(0 , 0 , 0) ; font-family: &amp;#34;helvetica&amp;#34; ; font-size: 12px ; font-style: normal ; font-variant: normal ; font-weight: 400 ; letter-spacing: normal ; line-height: 14.4px ; text-align: center ; text-decoration: none ; text-indent: 0px ; text-transform: none ; white-space: normal ; word-spacing: 0px ; word-wrap: normal&quot;&gt;DIM_BASE&lt;/span&gt;&lt;br style=&quot;background-attachment: scroll ; background-color: transparent ; background-image: none ; background-repeat: repeat ; background-size: auto ; border-bottom-color: rgb(0 , 0 , 0) ; border-bottom-style: none ; border-bottom-width: 0px ; border-left-color: rgb(0 , 0 , 0) ; border-left-style: none ; border-left-width: 0px ; border-right-color: rgb(0 , 0 , 0) ; border-right-style: none ; border-right-width: 0px ; border-top-color: rgb(0 , 0 , 0) ; border-top-style: none ; border-top-width: 0px ; color: rgb(0 , 0 , 0) ; display: inline ; font-family: &amp;#34;helvetica&amp;#34; ; font-size: 12px ; font-style: normal ; font-variant: normal ; font-weight: 400 ; letter-spacing: normal ; margin-bottom: 0px ; margin-left: 0px ; margin-right: 0px ; margin-top: 0px ; min-width: 0px ; overflow: visible ; padding-bottom: 0px ; padding-left: 0px ; padding-right: 0px ; padding-top: 0px ; position: static ; text-align: center ; text-decoration: none ; text-indent: 0px ; text-transform: none ; white-space: normal ; word-spacing: 0px ; word-wrap: normal&quot;&gt;&lt;span style=&quot;display: inline ; float: none ; background-color: transparent ; color: rgb(0 , 0 , 0) ; font-family: &amp;#34;helvetica&amp;#34; ; font-size: 12px ; font-style: normal ; font-variant: normal ; font-weight: 400 ; letter-spacing: normal ; line-height: 14.4px ; text-align: center ; text-decoration: none ; text-indent: 0px ; text-transform: none ; white-space: normal ; word-spacing: 0px ; word-wrap: normal&quot;&gt;CALCULO_PDU&lt;/span&gt;&lt;br style=&quot;background-attachment: scroll ; background-color: transparent ; background-image: none ; background-repeat: repeat ; background-size: auto ; border-bottom-color: rgb(0 , 0 , 0) ; border-bottom-style: none ; border-bottom-width: 0px ; border-left-color: rgb(0 , 0 , 0) ; border-left-style: none ; border-left-width: 0px ; border-right-color: rgb(0 , 0 , 0) ; border-right-style: none ; border-right-width: 0px ; border-top-color: rgb(0 , 0 , 0) ; border-top-style: none ; border-top-width: 0px ; color: rgb(0 , 0 , 0) ; display: inline ; font-family: &amp;#34;helvetica&amp;#34; ; font-size: 12px ; font-style: normal ; font-variant: normal ; font-weight: 400 ; letter-spacing: normal ; margin-bottom: 0px ; margin-left: 0px ; margin-right: 0px ; margin-top: 0px ; min-width: 0px ; overflow: visible ; padding-bottom: 0px ; padding-left: 0px ; padding-right: 0px ; padding-top: 0px ; position: static ; text-align: center ; text-decoration: none ; text-indent: 0px ; text-transform: none ; white-space: normal ; word-spacing: 0px ; word-wrap: normal&quot;&gt;&lt;span style=&quot;text-align: center ; color: rgb(0 , 0 , 0) ; text-transform: none ; line-height: 14.4px ; text-indent: 0px ; letter-spacing: normal ; font-family: &amp;#34;helvetica&amp;#34; ; font-style: normal ; font-variant: normal ; font-weight: 400 ; text-decoration: none ; word-spacing: 0px ; display: inline ; white-space: normal ; word-wrap: normal ; float: none ; background-color: transparent&quot;&gt;(dwcardif2)&lt;br&gt;&lt;br&gt;&lt;span style=&quot;text-align: center ; color: rgb(0 , 0 , 0) ; text-transform: none ; line-height: 12px ; text-indent: 0px ; letter-spacing: normal ; font-family: &amp;#34;helvetica&amp;#34; ; font-style: normal ; font-variant: normal ; font-weight: 400 ; text-decoration: none ; word-spacing: 0px ; display: inline ; white-space: normal ; word-wrap: normal ; float: none ; background-color: transparent&quot;&gt;Riesgo&lt;/span&gt;&lt;br style=&quot;background-color: transparent ; color: rgb(0 , 0 , 0) ; font-family: &amp;#34;helvetica&amp;#34; ; font-size: 10px ; font-style: normal ; font-variant: normal ; font-weight: 400 ; letter-spacing: normal ; text-align: center ; text-decoration: none ; text-indent: 0px ; text-transform: none ; white-space: normal ; word-spacing: 0px&quot;&gt;&lt;span style=&quot;display: inline ; float: none ; background-color: transparent ; color: rgb(0 , 0 , 0) ; font-family: &amp;#34;helvetica&amp;#34; ; font-size: 10px ; font-style: normal ; font-variant: normal ; font-weight: 400 ; letter-spacing: normal ; line-height: 12px ; text-align: center ; text-decoration: none ; text-indent: 0px ; text-transform: none ; white-space: normal ; word-spacing: 0px ; word-wrap: normal&quot;&gt;Tipo Asistencia&lt;/span&gt;&lt;br style=&quot;background-color: transparent ; color: rgb(0 , 0 , 0) ; font-family: &amp;#34;helvetica&amp;#34; ; font-size: 10px ; font-style: normal ; font-variant: normal ; font-weight: 400 ; letter-spacing: normal ; text-align: center ; text-decoration: none ; text-indent: 0px ; text-transform: none ; white-space: normal ; word-spacing: 0px&quot;&gt;&lt;span style=&quot;display: inline ; float: none ; background-color: transparent ; color: rgb(0 , 0 , 0) ; font-family: &amp;#34;helvetica&amp;#34; ; font-size: 10px ; font-style: normal ; font-variant: normal ; font-weight: 400 ; letter-spacing: normal ; line-height: 12px ; text-align: center ; text-decoration: none ; text-indent: 0px ; text-transform: none ; white-space: normal ; word-spacing: 0px ; word-wrap: normal&quot;&gt;Inicio/Fin Vigencia&lt;/span&gt;&lt;br style=&quot;background-color: transparent ; color: rgb(0 , 0 , 0) ; font-family: &amp;#34;helvetica&amp;#34; ; font-size: 10px ; font-style: normal ; font-variant: normal ; font-weight: 400 ; letter-spacing: normal ; text-align: center ; text-decoration: none ; text-indent: 0px ; text-transform: none ; white-space: normal ; word-spacing: 0px&quot;&gt;&lt;span style=&quot;display: inline ; float: none ; background-color: transparent ; color: rgb(0 , 0 , 0) ; font-family: &amp;#34;helvetica&amp;#34; ; font-size: 10px ; font-style: normal ; font-variant: normal ; font-weight: 400 ; letter-spacing: normal ; line-height: 12px ; text-align: center ; text-decoration: none ; text-indent: 0px ; text-transform: none ; white-space: normal ; word-spacing: 0px ; word-wrap: normal&quot;&gt;Precio Capita&lt;/span&gt;&lt;br style=&quot;background-color: transparent ; color: rgb(0 , 0 , 0) ; font-family: &amp;#34;helvetica&amp;#34; ; font-size: 10px ; font-style: normal ; font-variant: normal ; font-weight: 400 ; letter-spacing: normal ; text-align: center ; text-decoration: none ; text-indent: 0px ; text-transform: none ; white-space: normal ; word-spacing: 0px&quot;&gt;&lt;span style=&quot;display: inline ; float: none ; background-color: transparent ; color: rgb(0 , 0 , 0) ; font-family: &amp;#34;helvetica&amp;#34; ; font-size: 10px ; font-style: normal ; font-variant: normal ; font-weight: 400 ; letter-spacing: normal ; line-height: 12px ; text-align: center ; text-decoration: none ; text-indent: 0px ; text-transform: none ; white-space: normal ; word-spacing: 0px ; word-wrap: normal&quot;&gt;Fee Europ&lt;br&gt;&lt;/span&gt;&lt;span style=&quot;display: inline ; float: none ; background-color: transparent ; color: rgb(0 , 0 , 0) ; font-family: &amp;#34;helvetica&amp;#34; ; font-size: 10px ; font-style: normal ; font-variant: normal ; font-weight: 400 ; letter-spacing: normal ; line-height: 12px ; text-align: center ; text-decoration: none ; text-indent: 0px ; text-transform: none ; white-space: normal ; word-spacing: 0px ; word-wrap: normal&quot;&gt;Rentabilidad&lt;/span&gt;&lt;/span&gt;" parent="LFUgPbKsddazM6XdQZ-X-4" style="shape=internalStorage;whiteSpace=wrap;html=1;backgroundOutline=1;fontSize=10;dx=8;dy=10;" vertex="1">
          <mxGeometry as="geometry" x="210" width="120" height="170"/>
        </mxCell>
        <mxCell id="LFUgPbKsddazM6XdQZ-X-5" value="" parent="1" style="group" vertex="1" connectable="0">
          <mxGeometry as="geometry" x="60" y="450" width="330" height="170"/>
        </mxCell>
        <mxCell id="QJhBpU2Ap4GqpJilakro-4" value="Asistencia Producto Poliza Homologacion&lt;br&gt;.csv" parent="LFUgPbKsddazM6XdQZ-X-5" style="shape=note;whiteSpace=wrap;html=1;backgroundOutline=1;darkOpacity=0.05;" vertex="1">
          <mxGeometry as="geometry" y="10" width="90" height="120"/>
        </mxCell>
        <mxCell id="LFUgPbKsddazM6XdQZ-X-1" value="" parent="LFUgPbKsddazM6XdQZ-X-5" style="shape=flexArrow;endArrow=classic;html=1;entryX=0;entryY=0.5;entryDx=0;entryDy=0;endWidth=14.784580498866212;endSize=8.347619047619048;width=15.238095238095237;exitX=0;exitY=0;exitDx=90;exitDy=75;exitPerimeter=0;" edge="1" source="QJhBpU2Ap4GqpJilakro-4" target="LFUgPbKsddazM6XdQZ-X-3">
          <mxGeometry as="geometry" width="50" height="50" relative="1">
            <mxPoint as="sourcePoint" x="130" y="80"/>
            <mxPoint as="targetPoint" x="210.0000000000001" y="85"/>
            <Array as="points"/>
          </mxGeometry>
        </mxCell>
        <mxCell id="LFUgPbKsddazM6XdQZ-X-3" value="&lt;span style=&quot;text-align: center ; color: rgb(0 , 0 , 0) ; text-transform: none ; line-height: 14.4px ; text-indent: 0px ; letter-spacing: normal ; font-family: &amp;#34;helvetica&amp;#34; ; font-variant: normal ; word-spacing: 0px ; display: inline ; white-space: normal ; word-wrap: normal ; font-stretch: normal ; float: none ; background-color: transparent&quot;&gt;&lt;span style=&quot;display: inline ; float: none ; background-color: transparent ; color: rgb(0 , 0 , 0) ; font-family: &amp;#34;helvetica&amp;#34; ; font-size: 12px ; font-style: normal ; font-variant: normal ; font-weight: 400 ; letter-spacing: normal ; line-height: 14.4px ; text-align: center ; text-decoration: none ; text-indent: 0px ; text-transform: none ; white-space: normal ; word-spacing: 0px ; word-wrap: normal&quot;&gt;DIM_AS_PRDT&lt;/span&gt;&lt;br style=&quot;background-attachment: scroll ; background-color: transparent ; background-image: none ; background-repeat: repeat ; background-size: auto ; border-bottom-color: rgb(0 , 0 , 0) ; border-bottom-style: none ; border-bottom-width: 0px ; border-left-color: rgb(0 , 0 , 0) ; border-left-style: none ; border-left-width: 0px ; border-right-color: rgb(0 , 0 , 0) ; border-right-style: none ; border-right-width: 0px ; border-top-color: rgb(0 , 0 , 0) ; border-top-style: none ; border-top-width: 0px ; color: rgb(0 , 0 , 0) ; display: inline ; font-family: &amp;#34;helvetica&amp;#34; ; font-size: 12px ; font-style: normal ; font-variant: normal ; font-weight: 400 ; letter-spacing: normal ; margin-bottom: 0px ; margin-left: 0px ; margin-right: 0px ; margin-top: 0px ; min-width: 0px ; overflow: visible ; padding-bottom: 0px ; padding-left: 0px ; padding-right: 0px ; padding-top: 0px ; position: static ; text-align: center ; text-decoration: none ; text-indent: 0px ; text-transform: none ; white-space: normal ; word-spacing: 0px ; word-wrap: normal&quot;&gt;&lt;span style=&quot;display: inline ; float: none ; background-color: transparent ; color: rgb(0 , 0 , 0) ; font-family: &amp;#34;helvetica&amp;#34; ; font-size: 12px ; font-style: normal ; font-variant: normal ; font-weight: 400 ; letter-spacing: normal ; line-height: 14.4px ; text-align: center ; text-decoration: none ; text-indent: 0px ; text-transform: none ; white-space: normal ; word-spacing: 0px ; word-wrap: normal&quot;&gt;PLZ_HML&lt;/span&gt;&lt;br style=&quot;background-attachment: scroll ; background-color: transparent ; background-image: none ; background-repeat: repeat ; background-size: auto ; border-bottom-color: rgb(0 , 0 , 0) ; border-bottom-style: none ; border-bottom-width: 0px ; border-left-color: rgb(0 , 0 , 0) ; border-left-style: none ; border-left-width: 0px ; border-right-color: rgb(0 , 0 , 0) ; border-right-style: none ; border-right-width: 0px ; border-top-color: rgb(0 , 0 , 0) ; border-top-style: none ; border-top-width: 0px ; color: rgb(0 , 0 , 0) ; display: inline ; font-family: &amp;#34;helvetica&amp;#34; ; font-size: 12px ; font-style: normal ; font-variant: normal ; font-weight: 400 ; letter-spacing: normal ; margin-bottom: 0px ; margin-left: 0px ; margin-right: 0px ; margin-top: 0px ; min-width: 0px ; overflow: visible ; padding-bottom: 0px ; padding-left: 0px ; padding-right: 0px ; padding-top: 0px ; position: static ; text-align: center ; text-decoration: none ; text-indent: 0px ; text-transform: none ; white-space: normal ; word-spacing: 0px ; word-wrap: normal&quot;&gt;&lt;span style=&quot;text-align: center ; color: rgb(0 , 0 , 0) ; text-transform: none ; line-height: 14.4px ; text-indent: 0px ; letter-spacing: normal ; font-family: &amp;#34;helvetica&amp;#34; ; font-style: normal ; font-variant: normal ; font-weight: 400 ; text-decoration: none ; word-spacing: 0px ; display: inline ; white-space: normal ; word-wrap: normal ; float: none ; background-color: transparent&quot;&gt;&lt;font style=&quot;font-size: 10px&quot;&gt;(app_bi)&lt;/font&gt;&lt;/span&gt;&lt;/span&gt;&lt;span style=&quot;text-align: center ; color: rgb(0 , 0 , 0) ; text-transform: none ; line-height: 14.4px ; text-indent: 0px ; letter-spacing: normal ; font-family: &amp;#34;helvetica&amp;#34; ; font-style: normal ; font-variant: normal ; font-weight: 400 ; text-decoration: none ; word-spacing: 0px ; display: inline ; white-space: normal ; word-wrap: normal ; float: none ; background-color: transparent&quot;&gt;&lt;br&gt;&lt;br&gt;&lt;span style=&quot;text-align: center ; color: rgb(0 , 0 , 0) ; text-transform: none ; line-height: 12px ; text-indent: 0px ; letter-spacing: normal ; font-family: &amp;#34;helvetica&amp;#34; ; font-variant: normal ; word-spacing: 0px ; display: inline ; white-space: normal ; word-wrap: normal ; float: none ; background-color: transparent&quot;&gt;&lt;span style=&quot;text-align: center ; color: rgb(0 , 0 , 0) ; text-transform: none ; line-height: 12px ; text-indent: 0px ; letter-spacing: normal ; font-family: &amp;#34;helvetica&amp;#34; ; font-style: normal ; font-variant: normal ; font-weight: 400 ; text-decoration: none ; word-spacing: 0px ; display: inline ; white-space: normal ; word-wrap: normal ; float: none ; background-color: transparent&quot;&gt;Producto&lt;/span&gt;&lt;br style=&quot;margin: 0px ; padding: 0px ; border: 0px rgb(0 , 0 , 0) ; text-align: center ; background-image: none ; color: rgb(0 , 0 , 0) ; text-transform: none ; text-indent: 0px ; letter-spacing: normal ; overflow: visible ; font-family: &amp;#34;helvetica&amp;#34; ; font-style: normal ; font-variant: normal ; font-weight: 400 ; text-decoration: none ; background-repeat: repeat ; background-attachment: scroll ; word-spacing: 0px ; display: inline ; white-space: normal ; position: static ; word-wrap: normal ; min-width: 0px ; background-size: auto ; background-color: transparent&quot;&gt;&lt;span style=&quot;text-align: center ; color: rgb(0 , 0 , 0) ; text-transform: none ; line-height: 12px ; text-indent: 0px ; letter-spacing: normal ; font-family: &amp;#34;helvetica&amp;#34; ; font-style: normal ; font-variant: normal ; font-weight: 400 ; text-decoration: none ; word-spacing: 0px ; display: inline ; white-space: normal ; word-wrap: normal ; float: none ; background-color: transparent&quot;&gt;Riesgo&lt;/span&gt;&lt;br style=&quot;margin: 0px ; padding: 0px ; border: 0px rgb(0 , 0 , 0) ; text-align: center ; background-image: none ; color: rgb(0 , 0 , 0) ; text-transform: none ; text-indent: 0px ; letter-spacing: normal ; overflow: visible ; font-family: &amp;#34;helvetica&amp;#34; ; font-style: normal ; font-variant: normal ; font-weight: 400 ; text-decoration: none ; background-repeat: repeat ; background-attachment: scroll ; word-spacing: 0px ; display: inline ; white-space: normal ; position: static ; word-wrap: normal ; min-width: 0px ; background-size: auto ; background-color: transparent&quot;&gt;&lt;span style=&quot;text-align: center ; color: rgb(0 , 0 , 0) ; text-transform: none ; line-height: 12px ; text-indent: 0px ; letter-spacing: normal ; font-family: &amp;#34;helvetica&amp;#34; ; font-style: normal ; font-variant: normal ; font-weight: 400 ; text-decoration: none ; word-spacing: 0px ; display: inline ; white-space: normal ; word-wrap: normal ; float: none ; background-color: transparent&quot;&gt;Poliza Madre&lt;/span&gt;&lt;br style=&quot;margin: 0px ; padding: 0px ; border: 0px rgb(0 , 0 , 0) ; text-align: center ; background-image: none ; color: rgb(0 , 0 , 0) ; text-transform: none ; text-indent: 0px ; letter-spacing: normal ; overflow: visible ; font-family: &amp;#34;helvetica&amp;#34; ; font-style: normal ; font-variant: normal ; font-weight: 400 ; text-decoration: none ; background-repeat: repeat ; background-attachment: scroll ; word-spacing: 0px ; display: inline ; white-space: normal ; position: static ; word-wrap: normal ; min-width: 0px ; background-size: auto ; background-color: transparent&quot;&gt;&lt;span style=&quot;text-align: center ; color: rgb(0 , 0 , 0) ; text-transform: none ; line-height: 12px ; text-indent: 0px ; letter-spacing: normal ; font-family: &amp;#34;helvetica&amp;#34; ; font-style: normal ; font-variant: normal ; font-weight: 400 ; text-decoration: none ; word-spacing: 0px ; display: inline ; white-space: normal ; word-wrap: normal ; float: none ; background-color: transparent&quot;&gt;Tipo Asistencia&lt;/span&gt;&lt;br style=&quot;margin: 0px ; padding: 0px ; border: 0px rgb(0 , 0 , 0) ; text-align: center ; background-image: none ; color: rgb(0 , 0 , 0) ; text-transform: none ; text-indent: 0px ; letter-spacing: normal ; overflow: visible ; font-family: &amp;#34;helvetica&amp;#34; ; font-style: normal ; font-variant: normal ; font-weight: 400 ; text-decoration: none ; background-repeat: repeat ; background-attachment: scroll ; word-spacing: 0px ; display: inline ; white-space: normal ; position: static ; word-wrap: normal ; min-width: 0px ; background-size: auto ; background-color: transparent&quot;&gt;&lt;span style=&quot;text-align: center ; color: rgb(0 , 0 , 0) ; text-transform: none ; line-height: 12px ; text-indent: 0px ; letter-spacing: normal ; font-family: &amp;#34;helvetica&amp;#34; ; font-style: normal ; font-variant: normal ; font-weight: 400 ; text-decoration: none ; word-spacing: 0px ; display: inline ; white-space: normal ; word-wrap: normal ; float: none ; background-color: transparent&quot;&gt;Inicio/Fin Vigencia&lt;/span&gt;&lt;/span&gt;&lt;/span&gt;" parent="LFUgPbKsddazM6XdQZ-X-5" style="shape=internalStorage;whiteSpace=wrap;html=1;backgroundOutline=1;fontSize=10;dx=8;dy=10;" vertex="1">
          <mxGeometry as="geometry" x="210" width="120" height="170"/>
        </mxCell>
        <mxCell id="LFUgPbKsddazM6XdQZ-X-6" value="" parent="1" style="group" vertex="1" connectable="0">
          <mxGeometry as="geometry" x="61" y="750" width="330" height="170"/>
        </mxCell>
        <mxCell id="LFUgPbKsddazM6XdQZ-X-7" value="Siniestros&lt;br&gt;Asistencia.txt&lt;br&gt;&lt;br&gt;Siniestros&lt;br&gt;Atributo.txt" parent="LFUgPbKsddazM6XdQZ-X-6" style="shape=note;whiteSpace=wrap;html=1;backgroundOutline=1;darkOpacity=0.05;" vertex="1">
          <mxGeometry as="geometry" y="10" width="90" height="140"/>
        </mxCell>
        <mxCell id="LFUgPbKsddazM6XdQZ-X-8" value="" parent="LFUgPbKsddazM6XdQZ-X-6" style="shape=flexArrow;endArrow=classic;html=1;entryX=0;entryY=0.5;entryDx=0;entryDy=0;endWidth=14.784580498866212;endSize=8.347619047619048;width=15.238095238095237;exitX=0;exitY=0;exitDx=90;exitDy=75;exitPerimeter=0;" edge="1" source="LFUgPbKsddazM6XdQZ-X-7" target="LFUgPbKsddazM6XdQZ-X-9">
          <mxGeometry as="geometry" width="50" height="50" relative="1">
            <mxPoint as="sourcePoint" x="130" y="80"/>
            <mxPoint as="targetPoint" x="210.0000000000001" y="85"/>
            <Array as="points"/>
          </mxGeometry>
        </mxCell>
        <mxCell id="LFUgPbKsddazM6XdQZ-X-9" value="&lt;span style=&quot;text-align: center ; color: rgb(0 , 0 , 0) ; text-transform: none ; line-height: 14.4px ; text-indent: 0px ; letter-spacing: normal ; font-family: &amp;#34;helvetica&amp;#34; ; font-variant: normal ; word-spacing: 0px ; display: inline ; white-space: normal ; word-wrap: normal ; font-stretch: normal ; float: none ; background-color: transparent&quot;&gt;&lt;span style=&quot;display: inline ; float: none ; background-color: transparent ; color: rgb(0 , 0 , 0) ; font-family: &amp;#34;helvetica&amp;#34; ; font-size: 12px ; font-style: normal ; font-variant: normal ; font-weight: 400 ; letter-spacing: normal ; line-height: 14.4px ; text-align: center ; text-decoration: none ; text-indent: 0px ; text-transform: none ; white-space: normal ; word-spacing: 0px ; word-wrap: normal&quot;&gt;FACT_OT&lt;br&gt;ASISTENCIA&lt;/span&gt;&lt;br style=&quot;background-attachment: scroll ; background-color: transparent ; background-image: none ; background-repeat: repeat ; background-size: auto ; border-bottom-color: rgb(0 , 0 , 0) ; border-bottom-style: none ; border-bottom-width: 0px ; border-left-color: rgb(0 , 0 , 0) ; border-left-style: none ; border-left-width: 0px ; border-right-color: rgb(0 , 0 , 0) ; border-right-style: none ; border-right-width: 0px ; border-top-color: rgb(0 , 0 , 0) ; border-top-style: none ; border-top-width: 0px ; color: rgb(0 , 0 , 0) ; display: inline ; font-family: &amp;#34;helvetica&amp;#34; ; font-size: 12px ; font-style: normal ; font-variant: normal ; font-weight: 400 ; letter-spacing: normal ; margin-bottom: 0px ; margin-left: 0px ; margin-right: 0px ; margin-top: 0px ; min-width: 0px ; overflow: visible ; padding-bottom: 0px ; padding-left: 0px ; padding-right: 0px ; padding-top: 0px ; position: static ; text-align: center ; text-decoration: none ; text-indent: 0px ; text-transform: none ; white-space: normal ; word-spacing: 0px ; word-wrap: normal&quot;&gt;&lt;span style=&quot;text-align: center ; color: rgb(0 , 0 , 0) ; text-transform: none ; line-height: 14.4px ; text-indent: 0px ; letter-spacing: normal ; font-family: &amp;#34;helvetica&amp;#34; ; font-style: normal ; font-variant: normal ; font-weight: 400 ; text-decoration: none ; word-spacing: 0px ; display: inline ; white-space: normal ; word-wrap: normal ; float: none ; background-color: transparent&quot;&gt;&lt;font style=&quot;font-size: 10px&quot;&gt;(dwcardif2)&lt;/font&gt;&lt;/span&gt;&lt;/span&gt;&lt;span style=&quot;text-align: center ; color: rgb(0 , 0 , 0) ; text-transform: none ; line-height: 14.4px ; text-indent: 0px ; letter-spacing: normal ; font-family: &amp;#34;helvetica&amp;#34; ; font-style: normal ; font-variant: normal ; font-weight: 400 ; text-decoration: none ; word-spacing: 0px ; display: inline ; white-space: normal ; word-wrap: normal ; float: none ; background-color: transparent&quot;&gt;&lt;br&gt;&lt;br&gt;&lt;span style=&quot;text-align: center ; color: rgb(0 , 0 , 0) ; text-transform: none ; line-height: 12px ; text-indent: 0px ; letter-spacing: normal ; font-family: &amp;#34;helvetica&amp;#34; ; font-variant: normal ; word-spacing: 0px ; display: inline ; white-space: normal ; word-wrap: normal ; float: none ; background-color: transparent&quot;&gt;&lt;span style=&quot;text-align: center ; color: rgb(0 , 0 , 0) ; text-transform: none ; line-height: 12px ; text-indent: 0px ; letter-spacing: normal ; font-family: &amp;#34;helvetica&amp;#34; ; font-style: normal ; font-variant: normal ; font-weight: 400 ; text-decoration: none ; word-spacing: 0px ; display: inline ; white-space: normal ; word-wrap: normal ; float: none ; background-color: transparent&quot;&gt;Producto&lt;/span&gt;&lt;br style=&quot;margin: 0px ; padding: 0px ; border: 0px rgb(0 , 0 , 0) ; text-align: center ; background-image: none ; color: rgb(0 , 0 , 0) ; text-transform: none ; text-indent: 0px ; letter-spacing: normal ; overflow: visible ; font-family: &amp;#34;helvetica&amp;#34; ; font-style: normal ; font-variant: normal ; font-weight: 400 ; text-decoration: none ; background-repeat: repeat ; background-attachment: scroll ; word-spacing: 0px ; display: inline ; white-space: normal ; position: static ; word-wrap: normal ; min-width: 0px ; background-size: auto ; background-color: transparent&quot;&gt;&lt;span style=&quot;text-align: center ; color: rgb(0 , 0 , 0) ; text-transform: none ; line-height: 12px ; text-indent: 0px ; letter-spacing: normal ; font-family: &amp;#34;helvetica&amp;#34; ; font-style: normal ; font-variant: normal ; font-weight: 400 ; text-decoration: none ; word-spacing: 0px ; display: inline ; white-space: normal ; word-wrap: normal ; float: none ; background-color: transparent&quot;&gt;Riesgo&lt;/span&gt;&lt;br style=&quot;margin: 0px ; padding: 0px ; border: 0px rgb(0 , 0 , 0) ; text-align: center ; background-image: none ; color: rgb(0 , 0 , 0) ; text-transform: none ; text-indent: 0px ; letter-spacing: normal ; overflow: visible ; font-family: &amp;#34;helvetica&amp;#34; ; font-style: normal ; font-variant: normal ; font-weight: 400 ; text-decoration: none ; background-repeat: repeat ; background-attachment: scroll ; word-spacing: 0px ; display: inline ; white-space: normal ; position: static ; word-wrap: normal ; min-width: 0px ; background-size: auto ; background-color: transparent&quot;&gt;&lt;span style=&quot;text-align: center ; color: rgb(0 , 0 , 0) ; text-transform: none ; line-height: 12px ; text-indent: 0px ; letter-spacing: normal ; font-family: &amp;#34;helvetica&amp;#34; ; font-style: normal ; font-variant: normal ; font-weight: 400 ; text-decoration: none ; word-spacing: 0px ; display: inline ; white-space: normal ; word-wrap: normal ; float: none ; background-color: transparent&quot;&gt;Poliza Madre&lt;/span&gt;&lt;br style=&quot;margin: 0px ; padding: 0px ; border: 0px rgb(0 , 0 , 0) ; text-align: center ; background-image: none ; color: rgb(0 , 0 , 0) ; text-transform: none ; text-indent: 0px ; letter-spacing: normal ; overflow: visible ; font-family: &amp;#34;helvetica&amp;#34; ; font-style: normal ; font-variant: normal ; font-weight: 400 ; text-decoration: none ; background-repeat: repeat ; background-attachment: scroll ; word-spacing: 0px ; display: inline ; white-space: normal ; position: static ; word-wrap: normal ; min-width: 0px ; background-size: auto ; background-color: transparent&quot;&gt;&lt;span style=&quot;text-align: center ; color: rgb(0 , 0 , 0) ; text-transform: none ; line-height: 12px ; text-indent: 0px ; letter-spacing: normal ; font-family: &amp;#34;helvetica&amp;#34; ; font-style: normal ; font-variant: normal ; font-weight: 400 ; text-decoration: none ; word-spacing: 0px ; display: inline ; white-space: normal ; word-wrap: normal ; float: none ; background-color: transparent&quot;&gt;Tipo Asistencia&lt;/span&gt;&lt;br style=&quot;margin: 0px ; padding: 0px ; border: 0px rgb(0 , 0 , 0) ; text-align: center ; background-image: none ; color: rgb(0 , 0 , 0) ; text-transform: none ; text-indent: 0px ; letter-spacing: normal ; overflow: visible ; font-family: &amp;#34;helvetica&amp;#34; ; font-style: normal ; font-variant: normal ; font-weight: 400 ; text-decoration: none ; background-repeat: repeat ; background-attachment: scroll ; word-spacing: 0px ; display: inline ; white-space: normal ; position: static ; word-wrap: normal ; min-width: 0px ; background-size: auto ; background-color: transparent&quot;&gt;&lt;span style=&quot;text-align: center ; color: rgb(0 , 0 , 0) ; text-transform: none ; line-height: 12px ; text-indent: 0px ; letter-spacing: normal ; font-family: &amp;#34;helvetica&amp;#34; ; font-style: normal ; font-variant: normal ; font-weight: 400 ; text-decoration: none ; word-spacing: 0px ; display: inline ; white-space: normal ; word-wrap: normal ; float: none ; background-color: transparent&quot;&gt;Inicio/Fin Vigencia&lt;/span&gt;&lt;/span&gt;&lt;/span&gt;" parent="LFUgPbKsddazM6XdQZ-X-6" style="shape=internalStorage;whiteSpace=wrap;html=1;backgroundOutline=1;fontSize=10;dx=8;dy=10;" vertex="1">
          <mxGeometry as="geometry" x="210" width="120" height="170"/>
        </mxCell>
      </root>
    </mxGraphModel>
  </diagram>
</mxfile>
